<svg width="54" height="54" viewBox="0 0 54 54" fill="none" xmlns="http://www.w3.org/2000/svg">
<path d="M27 0C15.8169 0 6.75 9.06694 6.75 20.25C6.75 24.6535 8.19366 28.6943 10.5933 32.0034C10.6363 32.0827 10.6431 32.1713 10.692 32.2473L24.192 52.4973C24.8181 53.4364 25.8727 54 27 54C28.1273 54 29.1819 53.4364 29.808 52.4973L43.308 32.2473C43.3578 32.1713 43.3637 32.0827 43.4067 32.0034C45.8063 28.6943 47.25 24.6535 47.25 20.25C47.25 9.06694 38.1831 0 27 0ZM27 27C23.2723 27 20.25 23.9777 20.25 20.25C20.25 16.5223 23.2723 13.5 27 13.5C30.7277 13.5 33.75 16.5223 33.75 20.25C33.75 23.9777 30.7277 27 27 27Z" fill="#DB1D4D"/>
</svg>
