<svg width="25" height="25" viewBox="0 0 25 25" fill="none" xmlns="http://www.w3.org/2000/svg">
<path fill-rule="evenodd" clip-rule="evenodd" d="M12.5 18.75C15.9518 18.75 18.75 15.9518 18.75 12.5C18.75 9.04822 15.9518 6.25 12.5 6.25C9.04822 6.25 6.25 9.04822 6.25 12.5C6.25 15.9518 9.04822 18.75 12.5 18.75ZM12.5 16.6667C14.8011 16.6667 16.6667 14.8011 16.6667 12.5C16.6667 10.1988 14.8011 8.33333 12.5 8.33333C10.1988 8.33333 8.33333 10.1988 8.33333 12.5C8.33333 14.8011 10.1988 16.6667 12.5 16.6667Z" fill="white"/>
<path d="M18.75 5.20833C18.1747 5.20833 17.7083 5.67471 17.7083 6.25C17.7083 6.82529 18.1747 7.29167 18.75 7.29167C19.3253 7.29167 19.7916 6.82529 19.7916 6.25C19.7916 5.67471 19.3253 5.20833 18.75 5.20833Z" fill="white"/>
<path fill-rule="evenodd" clip-rule="evenodd" d="M1.7229 4.45423C1.04169 5.79118 1.04169 7.54134 1.04169 11.0417V13.9583C1.04169 17.4586 1.04169 19.2089 1.7229 20.5457C2.3221 21.7218 3.27823 22.6779 4.45425 23.2771C5.7912 23.9583 7.54136 23.9583 11.0417 23.9583H13.9584C17.4587 23.9583 19.2089 23.9583 20.5457 23.2771C21.7218 22.6779 22.6779 21.7218 23.2771 20.5457C23.9584 19.2089 23.9584 17.4586 23.9584 13.9583V11.0417C23.9584 7.54134 23.9584 5.79118 23.2771 4.45423C22.6779 3.27821 21.7218 2.32208 20.5457 1.72288C19.2089 1.04167 17.4587 1.04167 13.9584 1.04167H11.0417C7.54136 1.04167 5.7912 1.04167 4.45425 1.72288C3.27823 2.32208 2.3221 3.27821 1.7229 4.45423ZM13.9584 3.125H11.0417C9.25714 3.125 8.04403 3.12663 7.10635 3.20323C6.19298 3.27786 5.72589 3.41312 5.40006 3.57914C4.61605 3.97862 3.97863 4.61603 3.57916 5.40004C3.41313 5.72588 3.27787 6.19296 3.20325 7.10633C3.12664 8.04401 3.12502 9.25712 3.12502 11.0417V13.9583C3.12502 15.7429 3.12664 16.9559 3.20325 17.8936C3.27787 18.8071 3.41313 19.2742 3.57916 19.6C3.97863 20.384 4.61605 21.0214 5.40006 21.4208C5.72589 21.5869 6.19298 21.7222 7.10635 21.7968C8.04403 21.8733 9.25714 21.875 11.0417 21.875H13.9584C15.7429 21.875 16.956 21.8733 17.8937 21.7968C18.8071 21.7222 19.2742 21.5869 19.6 21.4208C20.384 21.0214 21.0214 20.384 21.4208 19.6C21.5869 19.2742 21.7222 18.8071 21.7968 17.8936C21.8734 16.9559 21.875 15.7429 21.875 13.9583V11.0417C21.875 9.25712 21.8734 8.04401 21.7968 7.10633C21.7222 6.19296 21.5869 5.72588 21.4208 5.40004C21.0214 4.61603 20.384 3.97862 19.6 3.57914C19.2742 3.41312 18.8071 3.27786 17.8937 3.20323C16.956 3.12663 15.7429 3.125 13.9584 3.125Z" fill="white"/>
</svg>
