<svg width="29" height="21" viewBox="0 0 29 21" fill="none" xmlns="http://www.w3.org/2000/svg">
<path fill-rule="evenodd" clip-rule="evenodd" d="M11.5832 14.2499V6.11273C14.4719 7.47201 16.7092 8.78509 19.3553 10.2008C17.1728 11.4111 14.4719 12.7691 11.5832 14.2499ZM27.682 2.06576C27.1837 1.40926 26.3344 0.898227 25.4302 0.729041C22.7726 0.224369 6.19293 0.222933 3.53677 0.729041C2.81171 0.864964 2.16606 1.19351 1.61143 1.70397C-0.725526 3.87302 0.00676596 15.505 0.570063 17.3892C0.806935 18.2047 1.11315 18.7929 1.49879 19.179C1.99565 19.6895 2.67593 20.0409 3.45732 20.1985C5.64551 20.6512 16.9187 20.9042 25.384 20.2665C26.1639 20.1306 26.8543 19.7678 27.3988 19.2357C29.5596 17.0753 29.4123 4.79009 27.682 2.06576Z" fill="white"/>
</svg>
