<svg width="19" height="18" viewBox="0 0 19 18" fill="none" xmlns="http://www.w3.org/2000/svg">
<path d="M5.2883 7.10779C5.08724 7.10779 4.88385 7.10779 4.67811 7.10779C3.84542 7.07769 3.01543 7.21905 2.23964 7.52309C1.46386 7.82713 0.758834 8.28737 0.168328 8.87523L0 9.07162V14.8789H2.86157V11.5825L3.24733 11.1477L3.42267 10.9443C4.33579 10.0062 5.47261 9.31589 6.7261 8.93836C6.09852 8.46082 5.60356 7.83064 5.2883 7.10779Z" fill="white"/>
<path d="M18.8527 8.8542C18.2622 8.26634 17.5571 7.80611 16.7814 7.50207C16.0056 7.19803 15.1756 7.05667 14.3429 7.08676C14.0875 7.08749 13.8323 7.10153 13.5784 7.12884C13.2572 7.807 12.7758 8.39676 12.1757 8.84719C13.5139 9.21741 14.7261 9.94475 15.6825 10.9513L15.8578 11.1477L16.2366 11.5825V14.886H19V9.05059L18.8527 8.8542Z" fill="white"/>
<path d="M4.65702 5.74013C4.73417 5.74013 4.79729 5.74013 4.87444 5.74013C4.77342 4.87271 4.92562 3.99459 5.31268 3.21177C5.69974 2.42894 6.3051 1.77488 7.05569 1.32853C6.78361 0.912868 6.40824 0.57499 5.96634 0.347986C5.52444 0.120981 5.03115 0.012633 4.5348 0.03355C4.03844 0.054467 3.55602 0.203932 3.13479 0.467311C2.71355 0.730689 2.36794 1.09895 2.13179 1.53603C1.89564 1.97312 1.77705 2.46404 1.78764 2.96072C1.79822 3.4574 1.93762 3.94283 2.19218 4.36945C2.44674 4.79607 2.80773 5.14928 3.2398 5.39447C3.67188 5.63966 4.16022 5.76843 4.65702 5.76818V5.74013Z" fill="white"/>
<path d="M14.0063 5.2141C14.0149 5.3753 14.0149 5.53684 14.0063 5.69804C14.1409 5.71938 14.2769 5.7311 14.4131 5.73311H14.5464C15.041 5.70673 15.5204 5.55274 15.9378 5.28611C16.3552 5.01949 16.6965 4.64932 16.9284 4.21165C17.1603 3.77397 17.2749 3.28371 17.2611 2.78858C17.2473 2.29346 17.1055 1.81035 16.8496 1.38629C16.5936 0.962226 16.2322 0.611662 15.8006 0.368726C15.3689 0.125791 14.8818 -0.00123694 14.3864 9.07905e-06C13.8911 0.0012551 13.4046 0.130733 12.9742 0.375837C12.5437 0.620941 12.1841 0.973319 11.9303 1.39866C12.5651 1.81313 13.0871 2.37869 13.4494 3.04461C13.8118 3.71053 14.0031 4.45599 14.0063 5.2141Z" fill="white"/>
<path d="M9.40537 8.35621C11.1368 8.35621 12.5405 6.95258 12.5405 5.22111C12.5405 3.48963 11.1368 2.086 9.40537 2.086C7.6739 2.086 6.27026 3.48963 6.27026 5.22111C6.27026 6.95258 7.6739 8.35621 9.40537 8.35621Z" fill="white"/>
<path d="M9.57368 10.0255C8.65773 9.9885 7.74376 10.1372 6.88677 10.4626C6.02978 10.7881 5.24749 11.2835 4.58696 11.9192L4.41162 12.1156V16.5552C4.41436 16.6998 4.44556 16.8425 4.50344 16.975C4.56132 17.1076 4.64475 17.2274 4.74896 17.3277C4.85317 17.428 4.97612 17.5068 5.11079 17.5596C5.24545 17.6124 5.3892 17.6381 5.53381 17.6353H13.5925C13.7371 17.6381 13.8809 17.6124 14.0155 17.5596C14.1502 17.5068 14.2731 17.428 14.3774 17.3277C14.4816 17.2274 14.565 17.1076 14.6229 16.975C14.6808 16.8425 14.712 16.6998 14.7147 16.5552V12.1296L14.5464 11.9192C13.8901 11.2816 13.1105 10.7847 12.2555 10.4591C11.4004 10.1335 10.4878 9.98591 9.57368 10.0255Z" fill="white"/>
</svg>
