<svg width="19" height="19" viewBox="0 0 19 19" fill="none" xmlns="http://www.w3.org/2000/svg">
<path d="M19 8.58958V10.4104C18.9946 10.577 18.9334 10.737 18.826 10.8645C18.7187 10.9921 18.5715 11.0798 18.4083 11.1135L16.9139 11.3714C16.8663 11.3799 16.8179 11.3824 16.7698 11.379C16.5946 12.0575 16.3248 12.7079 15.9682 13.3111C16.0054 13.3422 16.0385 13.3779 16.0668 13.4173L16.9404 14.6565C17.0326 14.7958 17.075 14.9621 17.0608 15.1285C17.0465 15.2949 16.9765 15.4517 16.8621 15.5733L15.5725 16.863C15.4508 16.977 15.2943 17.0466 15.1282 17.0606C14.9621 17.0746 14.7961 17.0322 14.6571 16.9402L13.4181 16.0677C13.3781 16.0396 13.342 16.0065 13.3106 15.9691C12.7013 16.3286 12.0441 16.5998 11.3585 16.7745C11.3715 16.8477 11.3715 16.9226 11.3585 16.9958L11.1284 18.3273C11.0901 18.5131 10.9903 18.6806 10.8451 18.8026C10.6999 18.9247 10.5177 18.9942 10.3281 19H8.67188C8.48227 18.9942 8.30015 18.9247 8.15493 18.8026C8.00971 18.6806 7.90988 18.5131 7.87157 18.3273L7.64147 16.9958C7.62833 16.9226 7.62833 16.8477 7.64147 16.7745C6.95592 16.5998 6.29865 16.3286 5.68938 15.9691C5.65792 16.006 5.62179 16.0387 5.58191 16.0664L4.34289 16.9402C4.20363 17.0323 4.03732 17.0747 3.87094 17.0605C3.70456 17.0463 3.54787 16.9762 3.42627 16.8618L2.13668 15.572C2.02303 15.4504 1.95362 15.2941 1.93963 15.1283C1.92564 14.9624 1.96788 14.7967 2.05956 14.6578L2.93319 13.4186C2.96097 13.3788 2.99368 13.3427 3.03054 13.3111C2.67441 12.7079 2.40499 12.0574 2.23024 11.379C2.18206 11.3824 2.13366 11.3798 2.08611 11.3714L0.591696 11.1135C0.428356 11.08 0.28109 10.9923 0.173716 10.8648C0.0663417 10.7372 0.00513694 10.5771 0 10.4104V8.58958C0.00513694 8.4229 0.0663417 8.26282 0.173716 8.13524C0.28109 8.00766 0.428356 7.92003 0.591696 7.88653L2.08611 7.62858C2.13367 7.62018 2.18212 7.61805 2.23024 7.62226C2.40517 6.94389 2.67457 6.29349 3.03054 5.69014C2.99379 5.65846 2.96109 5.62236 2.93319 5.58266L2.05956 4.34347C1.96778 4.20437 1.92549 4.03843 1.93948 3.87236C1.95347 3.7063 2.02293 3.54977 2.13668 3.42799L3.42627 2.13823C3.54798 2.02396 3.70465 1.95407 3.87097 1.93985C4.03729 1.92562 4.20355 1.96789 4.34289 2.05983L5.58191 2.93358C5.62187 2.96164 5.658 2.9948 5.68938 3.03221C6.29252 2.67562 6.94285 2.40574 7.62124 2.23053C7.61698 2.18242 7.61911 2.13394 7.62756 2.08638L7.88548 0.591774C7.91898 0.428413 8.00659 0.281128 8.13416 0.173739C8.26172 0.0663508 8.42178 0.00513762 8.58844 0H10.4116C10.5782 0.00513762 10.7383 0.0663508 10.8658 0.173739C10.9934 0.281128 11.081 0.428413 11.1145 0.591774L11.3724 2.08638C11.3807 2.13397 11.3828 2.18241 11.3788 2.23053C12.0571 2.40582 12.7074 2.67569 13.3106 3.03221C13.342 2.9948 13.3781 2.96164 13.4181 2.93358L14.6571 2.05983C14.7963 1.96799 14.9623 1.92577 15.1284 1.94C15.2945 1.95423 15.451 2.02407 15.5725 2.13823L16.8621 3.42799C16.9762 3.54951 17.046 3.70599 17.0603 3.87211C17.0745 4.03824 17.0323 4.20431 16.9404 4.34347L16.0668 5.58266C16.0385 5.62242 16.0054 5.65852 15.9682 5.69014C16.3248 6.29335 16.5946 6.94377 16.7698 7.62226C16.8179 7.61801 16.8663 7.62014 16.9139 7.62858L18.4083 7.88653C18.5715 7.92024 18.7187 8.00792 18.826 8.13546C18.9334 8.263 18.9946 8.42296 19 8.58958ZM12.7354 9.5C12.7351 8.86013 12.5452 8.2347 12.1896 7.70277C11.834 7.17084 11.3287 6.75629 10.7375 6.51154C10.1464 6.26679 9.49598 6.20282 8.8685 6.32771C8.24102 6.4526 7.66465 6.76076 7.21226 7.21321C6.75986 7.66567 6.45175 8.24212 6.32687 8.86968C6.20199 9.49725 6.26595 10.1478 6.51067 10.739C6.7554 11.3302 7.16988 11.8355 7.70174 12.1912C8.2336 12.5468 8.85895 12.7368 9.49874 12.7371C9.92382 12.7372 10.3448 12.6536 10.7375 12.491C11.1303 12.3284 11.4872 12.0899 11.7877 11.7893C12.0883 11.4887 12.3267 11.1318 12.4893 10.739C12.6519 10.3462 12.7355 9.92514 12.7354 9.5Z" fill="white"/>
</svg>
