<svg width="20" height="20" viewBox="0 0 20 20" fill="none" xmlns="http://www.w3.org/2000/svg">
<path d="M4.07912 5.46145L7.3433 8.73415C7.90361 8.19641 8.38943 7.73012 8.75381 7.37977L5.46096 4.07899L5.05811 2.29309L2.1199 0.507233L1.31361 1.31415L0.507324 2.1204L2.29322 5.05864L4.07912 5.46145Z" fill="white"/>
<path d="M13.9985 10.7929L18.8252 15.6043C19.7151 16.4936 19.7151 17.9359 18.8252 18.8257C17.9353 19.715 16.4936 19.715 15.6037 18.8257L10.7771 14.0143L13.9985 10.7929Z" fill="white"/>
<path d="M17.967 7.94559C19.629 6.43742 19.9067 4.72356 19.535 3.27824C19.524 3.16348 19.4966 3.06707 19.3965 2.99504L19.062 2.72098C19.004 2.66664 18.9259 2.64039 18.8477 2.64774C18.769 2.65567 18.6976 2.69594 18.6512 2.76004L16.7274 5.26125C16.6737 5.33512 16.587 5.37723 16.4961 5.37418L15.7978 5.42547C15.738 5.42363 15.68 5.40227 15.633 5.36442L14.2842 4.22121C14.2292 4.17664 14.1932 4.11317 14.184 4.04297L14.1004 3.41063C14.0906 3.34106 14.1083 3.27024 14.1499 3.21285L15.951 0.765939C16.0328 0.653634 16.0169 0.498009 15.9156 0.4034L15.4786 0.0616031C15.3931 -0.0177328 15.2961 -0.00675628 15.1636 0.0188687C13.9197 0.26422 11.7957 1.46906 11.2567 3.1341C10.7819 4.59957 10.9473 5.63289 10.9473 5.63289C10.9473 6.45871 10.6757 7.25461 10.3418 7.58848L0.957125 16.5986C0.938804 16.615 0.921109 16.6321 0.903414 16.6498C0.128258 17.425 0.129469 18.6829 0.878375 19.4318C1.62728 20.1807 2.90412 20.2003 3.67927 19.4251C3.71529 19.3891 3.75009 19.3519 3.78244 19.3134L12.8321 9.5307C13.9454 8.53945 16.1494 9.59539 17.967 7.94559Z" fill="white"/>
</svg>
