<svg width="14" height="20" viewBox="0 0 14 20" fill="none" xmlns="http://www.w3.org/2000/svg">
<path d="M12.474 3.33184C11.9595 2.35383 11.1539 1.53895 10.156 0.947856C9.15846 0.359379 7.95436 4.33891e-05 6.64752 4.33891e-05C5.03666 -0.00394099 3.6983 0.415746 2.68819 0.996957C1.67405 1.5761 1.23678 2.2504 1.23678 2.2504C1.06635 2.39829 0.970219 2.61344 0.974243 2.83852C0.978852 3.06391 1.08264 3.27547 1.25834 3.41602L2.66198 4.54024C2.94807 4.7693 3.35752 4.76071 3.63366 4.52C3.63366 4.52 3.80608 4.20836 4.34643 3.89969C4.88979 3.59305 5.59428 3.34606 6.64752 3.34274C7.56616 3.34075 8.36713 3.68356 8.91377 4.152C9.18534 4.38407 9.38819 4.64395 9.51252 4.88168C9.63784 5.12137 9.68358 5.3309 9.68295 5.49004C9.6803 6.02778 9.57584 6.3795 9.42502 6.67918C9.30999 6.90297 9.15983 7.10157 8.96651 7.29418C8.67807 7.58262 8.2869 7.84915 7.84799 8.09415C7.40873 8.34211 6.9353 8.56024 6.4569 8.82383C5.91088 9.12618 5.33307 9.56047 4.90608 10.2123C4.69323 10.5345 4.52678 10.9031 4.42108 11.292C4.31397 11.6812 4.26561 12.0893 4.26561 12.5057C4.26561 12.9499 4.26561 13.3146 4.26561 13.3146C4.26561 13.7333 4.60506 14.0728 5.02381 14.0728H6.85045C7.26916 14.0728 7.60866 13.7333 7.60866 13.3146C7.60866 13.3146 7.60866 12.9499 7.60866 12.5057C7.60866 12.3453 7.6269 12.2418 7.64448 12.1762C7.67467 12.0781 7.69159 12.0535 7.74096 11.9938C7.79135 11.9371 7.89311 11.8503 8.08073 11.7465C8.35491 11.5924 8.79549 11.3842 9.2944 11.1147C10.0413 10.7062 10.9494 10.1519 11.7152 9.23723C12.0961 8.78075 12.4329 8.23106 12.6653 7.59786C12.8997 6.96465 13.0263 6.25289 13.0257 5.49004C13.025 4.71723 12.8155 3.98325 12.474 3.33184Z" fill="white"/>
<path d="M5.93776 15.8766C4.79901 15.8766 3.87573 16.8002 3.87573 17.9386C3.87573 19.0767 4.79905 20 5.93776 20C7.07589 20 7.99882 19.0767 7.99882 17.9386C7.99882 16.8002 7.07589 15.8766 5.93776 15.8766Z" fill="white"/>
</svg>
