<svg width="28" height="33" viewBox="0 0 28 33" fill="none" xmlns="http://www.w3.org/2000/svg">
<path d="M9.78063 29.6032C10.1182 31.5716 11.8121 33 13.8083 33C15.8051 33 17.4995 31.5716 17.837 29.6032L17.8576 29.4833H9.76001L9.78063 29.6032Z" fill="white"/>
<path d="M27.5879 23.9753C27.2575 23.6448 26.9209 23.3653 26.5952 23.0948C25.2255 21.9573 24.0424 20.975 24.0424 16.8965V13.6613C24.0424 8.90413 20.7 4.72989 16.0753 3.6833C16.2607 3.31979 16.3547 2.93771 16.3547 2.54538C16.3547 1.14198 15.2126 0 13.8087 0C12.4052 0 11.2633 1.14198 11.2633 2.54538C11.2633 2.93797 11.3572 3.31998 11.5427 3.6833C6.91782 4.72989 3.5756 8.90413 3.5756 13.6613V16.8965C3.5756 20.975 2.3925 21.9574 1.02274 23.0948C0.697125 23.3652 0.360422 23.6448 0.0300351 23.9753L0 24.0053V27.2149H27.6179V24.0053L27.5879 23.9753Z" fill="white"/>
</svg>
